<svg width="29" height="29" viewBox="0 0 29 29" fill="none" xmlns="http://www.w3.org/2000/svg">
<path d="M7.9729 22.2248L7.9729 19.5581" stroke="#424040" stroke-width="2.83923" stroke-linecap="round"/>
<path d="M14.6396 22.2251L14.6396 18.2251" stroke="#424040" stroke-width="2.83923" stroke-linecap="round"/>
<path d="M21.3062 22.2248L21.3062 15.5581" stroke="#424040" stroke-width="2.83923" stroke-linecap="round"/>
<path d="M6.63965 12.1388C5.85562 12.1388 5.22003 12.7744 5.22003 13.5584C5.22003 14.3425 5.85562 14.978 6.63965 14.978V12.1388ZM21.2056 7.59609C21.5945 6.91536 21.358 6.04818 20.6773 5.65919C19.9966 5.2702 19.1294 5.50671 18.7404 6.18744L21.2056 7.59609ZM17.0753 5.21745C16.3017 5.34505 15.778 6.0756 15.9056 6.84918C16.0332 7.62276 16.7638 8.14643 17.5374 8.01882L17.0753 5.21745ZM18.9965 6.33934L18.7655 4.93865L18.9965 6.33934ZM20.8821 7.41113L19.5174 7.80211L20.8821 7.41113ZM19.9416 9.28274C20.1575 10.0365 20.9436 10.4724 21.6973 10.2565C22.451 10.0405 22.887 9.2545 22.671 8.50078L19.9416 9.28274ZM20.3385 6.32049L21.04 5.08631L21.04 5.08631L20.3385 6.32049ZM6.63965 14.978C12.9693 14.978 18.2081 12.8417 21.2056 7.59609L18.7404 6.18744C16.4046 10.2752 12.31 12.1388 6.63965 12.1388V14.978ZM17.5374 8.01882L19.2276 7.74002L18.7655 4.93865L17.0753 5.21745L17.5374 8.01882ZM19.5174 7.80211L19.9416 9.28274L22.671 8.50078L22.2468 7.02016L19.5174 7.80211ZM19.2276 7.74002C19.4098 7.70996 19.5481 7.68722 19.6666 7.6704C19.7855 7.65353 19.8544 7.64709 19.8951 7.64524C19.9348 7.64342 19.9162 7.64773 19.8646 7.63858C19.804 7.62785 19.722 7.60301 19.637 7.55466L21.04 5.08631C20.5766 4.82289 20.1145 4.79304 19.7657 4.80896C19.4501 4.82336 19.0865 4.88569 18.7655 4.93865L19.2276 7.74002ZM22.2468 7.02016C22.1693 6.7496 22.0724 6.3985 21.9409 6.10719C21.7845 5.76063 21.5227 5.36068 21.04 5.08631L19.637 7.55466C19.5507 7.5056 19.4746 7.43991 19.4169 7.36949C19.3655 7.30676 19.3477 7.26339 19.3531 7.27531C19.3596 7.28984 19.3768 7.33224 19.4075 7.42893C19.438 7.52544 19.4712 7.64096 19.5174 7.80211L22.2468 7.02016Z" fill="#424040"/>
<path d="M1.9729 14.2253C1.9729 8.25414 1.9729 5.26857 3.82789 3.41358C5.68288 1.55859 8.66844 1.55859 14.6396 1.55859C20.6107 1.55859 23.5963 1.55859 25.4512 3.41358C27.3062 5.26857 27.3062 8.25414 27.3062 14.2253C27.3062 20.1964 27.3062 23.1819 25.4512 25.0369C23.5963 26.8919 20.6107 26.8919 14.6396 26.8919C8.66844 26.8919 5.68288 26.8919 3.82789 25.0369C1.9729 23.1819 1.9729 20.1964 1.9729 14.2253Z" stroke="#424040" stroke-width="2.83923"/>
</svg>
