<svg width="55" height="45" viewBox="0 0 55 45" fill="none" xmlns="http://www.w3.org/2000/svg">
<path d="M4.58398 4.5835H8.5715C11.0465 4.5835 12.9944 6.71475 12.7882 9.16683L10.8861 31.9918C10.5652 35.7272 13.5215 38.9356 17.2798 38.9356H41.6861C44.9861 38.9356 47.8736 36.2314 48.1257 32.9543L49.3631 15.7668C49.6381 11.9627 46.7506 8.8689 42.9236 8.8689H13.3382" stroke="#EA1C24" stroke-width="3.95312" stroke-miterlimit="10" stroke-linecap="round" stroke-linejoin="round"/>
<path opacity="0.4" d="M37.2406 50.4167C38.8226 50.4167 40.1051 49.1342 40.1051 47.5521C40.1051 45.97 38.8226 44.6875 37.2406 44.6875C35.6585 44.6875 34.376 45.97 34.376 47.5521C34.376 49.1342 35.6585 50.4167 37.2406 50.4167Z" stroke="#EA1C24" stroke-width="3.95312" stroke-miterlimit="10" stroke-linecap="round" stroke-linejoin="round"/>
<path opacity="0.4" d="M18.9066 50.4167C20.4886 50.4167 21.7712 49.1342 21.7712 47.5521C21.7712 45.97 20.4886 44.6875 18.9066 44.6875C17.3245 44.6875 16.042 45.97 16.042 47.5521C16.042 49.1342 17.3245 50.4167 18.9066 50.4167Z" stroke="#EA1C24" stroke-width="3.95312" stroke-miterlimit="10" stroke-linecap="round" stroke-linejoin="round"/>
<path opacity="0.4" d="M20.625 18.3335H48.125" stroke="#EA1C24" stroke-width="3.95312" stroke-miterlimit="10" stroke-linecap="round" stroke-linejoin="round"/>
</svg>
