<svg width="64" height="57" viewBox="0 0 64 57" fill="none" xmlns="http://www.w3.org/2000/svg">
<g clip-path="url(#clip0_1179_103612)">
<path d="M20.2692 53.8666C20.2692 50.88 17.9225 48.5332 14.9358 48.5332C11.949 48.5332 9.60254 50.88 9.60254 53.8666C9.60254 56.8532 11.9492 59.2 14.9359 59.2C17.9227 59.2 20.2692 56.8533 20.2692 53.8666Z" fill="#FBD2D3"/>
<path d="M61.8669 53.8666C61.8669 50.88 59.5203 48.5332 56.5336 48.5332C53.5469 48.5332 51.2002 50.8798 51.2002 53.8666C51.2002 56.8532 53.5468 59.2 56.5336 59.2C59.5203 59.2 61.8669 56.8533 61.8669 53.8666Z" fill="#FBD2D3"/>
<path d="M61.3347 43.5201C59.9481 41.9201 57.7081 41.0667 55.4681 41.0667H54.4013C53.7613 37.7601 51.4147 34.9867 48.3213 33.7067L48.0013 33.6001V21.8667H37.3347V22.9333C38.5081 22.9333 39.4681 23.8933 39.4681 25.0667C39.4681 26.2401 38.5081 27.2001 37.3347 27.2001V28.2667H43.7347V41.0667V49.6001H26.6679L28.1613 46.2934C28.5879 44.9068 28.8013 43.5201 28.8013 42.1334C28.8013 40.3201 27.4147 38.9335 25.6013 38.9335H5.33469C3.52131 38.9335 2.13469 40.3201 2.13469 42.1334V43.4135C2.13469 43.9468 2.45469 44.4801 2.88131 44.6934C4.26794 45.6534 4.69469 47.4668 3.84131 48.9601L2.45469 51.3067C1.81469 52.1601 2.02806 53.3333 2.98806 53.7601C3.30806 53.7601 3.52144 53.8667 3.73469 53.8667H6.40131C6.40131 49.1733 10.2413 45.3333 14.9347 45.3333C19.6281 45.3333 23.4681 49.1733 23.4681 53.8667H48.0013C48.0013 49.1733 51.8413 45.3333 56.5347 45.3333C60.3747 45.3333 61.5481 46.08 62.9347 47.4667C62.9347 45.9734 62.2947 44.6934 61.3347 43.5201Z" fill="#FBD2D3"/>
<path d="M6.18806 53.6536C5.22806 53.227 5.01469 51.947 5.65469 51.2002L7.04131 48.8536C7.89469 47.467 7.46794 45.6536 6.08131 44.6936C5.65469 44.4802 5.33469 44.0536 5.33469 43.4136V42.1336C5.33469 40.3202 6.72131 38.9336 8.53469 38.9336H5.33469C3.52131 38.9336 2.13469 40.3202 2.13469 42.1336V43.4136C2.13469 43.947 2.45469 44.4802 2.88131 44.6936C4.26794 45.6536 4.69469 47.467 3.84131 48.9602L2.45469 51.3068C1.81469 52.1602 2.02806 53.3335 2.98806 53.7602C3.30806 53.7602 3.52144 53.8668 3.73469 53.8668H6.40144V53.7602C6.29481 53.7602 6.29481 53.7602 6.18806 53.6536Z" fill="white"/>
<path d="M52.2666 26.1334H50.1334L48 25.0666V20.8L50.1334 19.7334H52.2666V26.1334Z" fill="#EA1C24"/>
<path d="M29.8668 10.1332C29.8668 7.14655 27.5202 4.7998 24.5334 4.7998C21.5467 4.7998 19.2002 7.14643 19.2002 10.1332C19.2002 13.1199 21.5468 15.4666 24.5336 15.4666C27.5203 15.4666 29.8668 13.1198 29.8668 10.1332Z" fill="#71547B" fill-opacity="0.09"/>
<path d="M35.841 34.5597C35.4143 33.3863 34.3476 32.5331 33.0676 32.5331H27.7342V27.1997H37.2276C38.2942 27.1997 39.2542 26.4531 39.4676 25.3863C39.681 23.9997 38.6142 22.9329 37.3342 22.9329H29.8676V19.1997C29.8676 17.1731 28.161 15.4663 26.1342 15.4663H24.001C21.9743 15.4663 20.2676 17.1729 20.2676 19.1997V35.1997C20.2676 37.2263 21.9742 38.9331 24.001 38.9331H32.001L35.201 49.5997H40.5343L35.841 34.5597Z" fill="#71547B" fill-opacity="0.09"/>
<path d="M1.06738 38.9334H16.0008V24H1.06738V38.9334Z" fill="#FBD2D3"/>
<path d="M1.06738 38.9334H3.20076V24H1.06738V38.9334Z" fill="white"/>
<path d="M6.40039 28.2666H10.667V24H6.40039V28.2666Z" fill="#EA1C24"/>
<path d="M14.9332 56.0001C13.7598 56.0001 12.7998 55.0402 12.7998 53.8668C12.7998 52.6934 13.7598 51.7334 14.9332 51.7334C16.1066 51.7334 17.0666 52.6934 17.0666 53.8668C17.0666 55.0402 16.1064 56.0001 14.9332 56.0001Z" fill="#373535"/>
<path d="M14.9322 60.2668C11.4122 60.2668 8.53223 57.3868 8.53223 53.8668C8.53223 50.3468 11.4122 47.4668 14.9322 47.4668C18.4522 47.4668 21.3322 50.3468 21.3322 53.8668C21.3322 57.3868 18.4522 60.2668 14.9322 60.2668ZM14.9322 49.6002C12.5856 49.6002 10.6656 51.5202 10.6656 53.8668C10.6656 56.2134 12.5856 58.1334 14.9322 58.1334C17.2789 58.1334 19.1989 56.2134 19.1989 53.8668C19.1989 51.5202 17.2789 49.6002 14.9322 49.6002Z" fill="#373535"/>
<path d="M56.5338 56.0001C55.3604 56.0001 54.4004 55.0402 54.4004 53.8668C54.4004 52.6934 55.3604 51.7334 56.5338 51.7334C57.7071 51.7334 58.6671 52.6934 58.6671 53.8668C58.6671 55.0402 57.707 56.0001 56.5338 56.0001Z" fill="#373535"/>
<path d="M56.5328 60.2668C53.0128 60.2668 50.1328 57.3868 50.1328 53.8668C50.1328 50.3468 53.0128 47.4668 56.5328 47.4668C60.0528 47.4668 62.9328 50.3468 62.9328 53.8668C62.9328 57.3868 60.0528 60.2668 56.5328 60.2668ZM56.5328 49.6002C54.1862 49.6002 52.2662 51.5202 52.2662 53.8668C52.2662 56.2134 54.1862 58.1334 56.5328 58.1334C58.8794 58.1334 60.7994 56.2134 60.7994 53.8668C60.7994 51.5202 58.8794 49.6002 56.5328 49.6002Z" fill="#373535"/>
<path d="M16 40.0002H1.06662C0.426625 40.0002 0 39.5736 0 38.9336V24.0002C0 23.3602 0.426625 22.9336 1.06662 22.9336H16C16.64 22.9336 17.0666 23.3602 17.0666 24.0002V38.9336C17.0666 39.5736 16.64 40.0002 16 40.0002ZM2.13337 37.8668H14.9334V25.0668H2.13337V37.8668Z" fill="#373535"/>
<path d="M24.5328 16.5334C21.0128 16.5334 18.1328 13.6534 18.1328 10.1334C18.1328 6.6134 21.0128 3.7334 24.5328 3.7334C28.0528 3.7334 30.9328 6.6134 30.9328 10.1334C30.9328 13.6534 28.0528 16.5334 24.5328 16.5334ZM24.5328 5.86665C22.1862 5.86665 20.2662 7.78665 20.2662 10.1333C20.2662 12.4799 22.1862 14.3999 24.5328 14.3999C26.8794 14.3999 28.7994 12.48 28.7994 10.1334C28.7994 7.78677 26.8794 5.86665 24.5328 5.86665Z" fill="#373535"/>
<path d="M52.266 27.2002H50.1326C49.9192 27.2002 49.8126 27.2002 49.706 27.0936L47.5726 26.027C47.146 25.8136 46.9326 25.4936 46.9326 25.067V20.8002C46.9326 20.3736 47.146 20.0536 47.5726 19.8402L49.706 18.7736C49.8126 18.667 49.9194 18.667 50.1326 18.667H52.266C52.906 18.667 53.3326 19.0936 53.3326 19.7336V26.1336C53.3327 26.7736 52.906 27.2002 52.266 27.2002ZM50.346 25.0669H51.1994V20.8002H50.346L49.066 21.4402V24.4269L50.346 25.0669Z" fill="#373535"/>
<path d="M27.7322 28.2664C25.9189 28.2664 24.5322 26.8798 24.5322 25.0664V21.8664C24.5322 21.2264 24.9589 20.7998 25.5989 20.7998C26.2389 20.7998 26.6655 21.2264 26.6655 21.8664V25.0664C26.6655 25.7064 27.0921 26.1331 27.7321 26.1331C28.3721 26.1331 28.7987 26.5597 28.7987 27.1997C28.7989 27.8398 28.3722 28.2664 27.7322 28.2664Z" fill="#373535"/>
<path d="M40.5336 50.6665H35.2002C34.7736 50.6665 34.3468 50.3465 34.1336 49.9199L31.2536 39.9999H24.0002C21.3336 39.9999 19.2002 37.8665 19.2002 35.1999V19.1999C19.2002 16.5333 21.3336 14.3999 24.0002 14.3999H26.1336C28.8002 14.3999 30.9336 16.5333 30.9336 19.1999V21.8665H37.3336C38.2936 21.8665 39.1469 22.2932 39.7869 23.0399C40.4269 23.7865 40.6403 24.7465 40.5336 25.5999C40.3202 27.0933 38.9336 28.2665 37.2269 28.2665H28.8002V31.4665H33.0668C34.7734 31.4665 36.3734 32.5332 36.8002 34.2399L41.6002 49.2799C41.7068 49.5999 41.6002 49.9199 41.4936 50.2399C41.1736 50.4533 40.8536 50.6665 40.5336 50.6665ZM35.9468 48.5333H39.0402L34.7736 34.8799C34.5602 34.1333 33.9202 33.5999 33.0669 33.5999H27.7336C27.0936 33.5999 26.6669 33.1733 26.6669 32.5333V27.1999C26.6669 26.8799 26.7736 26.6665 26.9869 26.4533C27.2003 26.2399 27.4136 26.1333 27.7336 26.1333H37.2269C37.7603 26.1333 38.2936 25.7067 38.4003 25.2799C38.4003 24.9599 38.4003 24.6399 38.1869 24.4265C37.9736 24.1065 37.6536 23.9999 37.3336 23.9999H29.8669C29.2269 23.9999 28.8003 23.5733 28.8003 22.9333V19.1999C28.8003 17.7065 27.6269 16.5333 26.1337 16.5333H24.0002C22.5068 16.5333 21.3336 17.7067 21.3336 19.1999V35.1999C21.3336 36.6933 22.5069 37.8665 24.0002 37.8665H32.0002C32.4268 37.8665 32.8536 38.1865 33.0668 38.6132L35.9468 48.5333Z" fill="#373535"/>
<path d="M48.0008 54.9334H23.4674C22.8274 54.9334 22.4008 54.5068 22.4008 53.8668C22.4008 49.7068 19.0941 46.4002 14.9341 46.4002C10.7741 46.4002 7.46751 49.7068 7.46751 53.8668C7.46751 54.5068 7.04088 54.9334 6.40088 54.9334H3.73413C3.30751 54.9334 2.88076 54.8268 2.56076 54.6134C1.81413 54.2934 1.28076 53.5468 1.17413 52.8C0.960758 52.0534 1.17413 51.2 1.60076 50.6667L2.88076 48.4267C3.41413 47.4667 3.20076 46.2933 2.24076 45.76C1.49413 45.12 1.06738 44.3734 1.06738 43.4134V42.1334C1.06738 39.7868 2.98738 37.8668 5.33401 37.8668H25.6008C26.7741 37.8668 27.8408 38.2934 28.5874 39.1468C29.4408 40.0002 29.8674 41.0668 29.8674 42.1334C29.8674 43.6268 29.654 45.12 29.1208 46.6134L28.2674 48.5334H42.6674V29.3334H37.334C36.694 29.3334 36.2674 28.9068 36.2674 28.2668V27.2C36.2674 26.56 36.694 26.1334 37.334 26.1334C37.974 26.1334 38.4006 25.7068 38.4006 25.0668C38.4006 24.4268 37.974 24.0002 37.334 24.0002C36.694 24.0002 36.2674 23.5735 36.2674 22.9335V21.8669C36.2674 21.2269 36.694 20.8003 37.334 20.8003H48.0008C48.6408 20.8003 49.0674 21.2269 49.0674 21.8669V32.8535C52.0541 34.24 54.2941 36.8 55.2541 40H55.4675C58.1341 40 60.5875 41.0667 62.1875 42.88C63.3608 44.2667 64.0008 45.76 64.0008 47.4667C64.0008 47.8933 63.7874 48.32 63.3608 48.4267C62.9341 48.64 62.5074 48.5333 62.1874 48.2133C61.014 47.0399 60.054 46.3999 56.534 46.3999C52.374 46.3999 49.0674 49.7065 49.0674 53.8665C49.0674 54.5067 48.6408 54.9334 48.0008 54.9334ZM24.4274 52.8H46.934C47.4674 48 51.5206 44.2667 56.4274 44.2667C58.454 44.2667 59.8408 44.48 60.9074 44.9067C60.8008 44.6933 60.5874 44.48 60.374 44.2667C59.2006 42.88 57.2806 42.1333 55.254 42.1333H54.1874C53.654 42.1333 53.2274 41.8133 53.1208 41.2799C52.4808 38.2933 50.4541 35.8399 47.6808 34.6665L47.3608 34.5599C47.1474 34.4533 46.9341 34.0265 46.9341 33.5999V22.9333H39.6808C40.2141 23.4667 40.5341 24.2133 40.5341 25.0667C40.5341 25.92 40.2141 26.6667 39.6808 27.2H43.7341C44.3741 27.2 44.8008 27.6267 44.8008 28.2667V49.6C44.8008 50.24 44.3741 50.6667 43.7341 50.6667H26.6674C26.3474 50.6667 25.9208 50.4533 25.814 50.1333C25.7073 49.8133 25.6006 49.4933 25.7074 49.1733L27.2008 45.8667C27.6274 44.6933 27.7341 43.4133 27.7341 42.1333C27.7341 41.5999 27.5208 41.0667 27.0941 40.6399C26.6675 40.2133 26.1341 39.9999 25.6008 39.9999H5.33413C4.16076 39.9999 3.20076 40.9599 3.20076 42.1333V43.4133C3.20076 43.6267 3.41413 43.7333 3.52076 43.8399C5.33413 45.0133 5.97413 47.4665 4.80076 49.3865L3.41413 51.7332L3.30751 51.8398C3.20088 52.0532 3.20088 52.2664 3.20088 52.3732C3.20088 52.4798 3.30751 52.6932 3.52088 52.7998C3.62751 52.7998 3.62751 52.7998 3.73426 52.7998H5.33426C5.86763 47.9998 9.92088 44.2664 14.8276 44.2664C19.7344 44.2664 23.8941 48 24.4274 52.8Z" fill="#373535"/>
<path d="M10.6663 29.3336H6.39963C5.75963 29.3336 5.33301 28.907 5.33301 28.267V24.0002C5.33301 23.3602 5.75963 22.9336 6.39963 22.9336H10.6663C11.3063 22.9336 11.7329 23.3602 11.7329 24.0002V28.2668C11.733 28.9068 11.3063 29.3336 10.6663 29.3336ZM7.46626 27.2002H9.59963V25.0668H7.46626V27.2002Z" fill="#373535"/>
</g>
<defs>
<clipPath id="clip0_1179_103612">
<rect width="64" height="64" fill="white"/>
</clipPath>
</defs>
</svg>
