<svg width="71" height="70" viewBox="0 0 71 70" fill="none" xmlns="http://www.w3.org/2000/svg">
<rect x="0.197266" width="70" height="70" rx="35" fill="#FDC800"/>
<g clip-path="url(#clip0_1948_30077)">
<path d="M35.1977 21.3027C20.0685 21.3027 7.80371 27.4352 7.80371 34.9996C7.80371 42.5642 20.0685 48.6966 35.1977 48.6966C50.3269 48.6966 62.5917 42.5641 62.5917 34.9996C62.5917 27.4351 50.3269 21.3027 35.1977 21.3027ZM35.1977 46.5342C21.2627 46.5342 9.96618 41.37 9.96618 34.9996C9.96618 28.6292 21.2628 23.4651 35.1977 23.4651C49.1327 23.4651 60.4292 28.6292 60.4292 34.9996C60.4292 41.37 49.1326 46.5342 35.1977 46.5342ZM31.743 32.5967V30.4339H39.4712V32.5967H36.6889V39.5654H34.5257V32.5967H31.743ZM48.7996 30.4339V39.5655H46.6372L42.7151 34.1295V39.5655H40.5527V30.4339H42.715L46.6371 35.8699V30.4339H48.7996ZM21.5314 39.5655V30.4339H23.6939L26.0964 34.1295L28.4989 30.4339H30.6605V39.5655H28.4989V34.4005L26.8587 36.9216H25.3341L23.6939 34.4005V39.5655H21.5314Z" fill="black"/>
</g>
<defs>
<clipPath id="clip0_1948_30077">
<rect width="54.7879" height="27.3939" fill="white" transform="translate(7.80371 21.3027)"/>
</clipPath>
</defs>
</svg>
