<svg width="24" height="24" viewBox="0 0 24 24" fill="none" xmlns="http://www.w3.org/2000/svg">
<path opacity="0.4" d="M18.1399 21.6198C17.2599 21.8798 16.2199 21.9998 14.9999 21.9998H8.99986C7.77986 21.9998 6.73986 21.8798 5.85986 21.6198C6.07986 19.0198 8.74986 16.9697 11.9999 16.9697C15.2499 16.9697 17.9199 19.0198 18.1399 21.6198Z" stroke="#818080" stroke-width="1.5" stroke-linecap="round" stroke-linejoin="round"/>
<path d="M22 9V15C22 18.78 20.86 20.85 18.14 21.62C17.26 21.88 16.22 22 15 22H9C7.78 22 6.74 21.88 5.86 21.62C3.14 20.85 2 18.78 2 15V9C2 4 4 2 9 2H15C20 2 22 4 22 9Z" stroke="#818080" stroke-width="1.5" stroke-linecap="round" stroke-linejoin="round"/>
<path opacity="0.4" d="M15.5799 10.58C15.5799 12.56 13.9799 14.17 11.9999 14.17C10.0199 14.17 8.41992 12.56 8.41992 10.58C8.41992 8.60002 10.0199 7 11.9999 7C13.9799 7 15.5799 8.60002 15.5799 10.58Z" stroke="#818080" stroke-width="1.5" stroke-linecap="round" stroke-linejoin="round"/>
</svg>
