<svg width="32" height="33" viewBox="0 0 32 33" fill="none" xmlns="http://www.w3.org/2000/svg">
<path d="M17.3333 14.9023H9.33325" stroke="#424040" stroke-width="2.11961" stroke-linecap="round" stroke-linejoin="round"/>
<path d="M2.66675 14.9023V8.74227C2.66675 6.02227 4.86675 3.82227 7.58675 3.82227H15.0801C17.8001 3.82227 20.0001 5.5156 20.0001 8.2356" stroke="#424040" stroke-width="2.11961" stroke-linecap="round" stroke-linejoin="round"/>
<path d="M23.3067 16.302C22.6401 16.942 22.3201 17.9286 22.5868 18.942C22.9201 20.182 24.1468 20.9687 25.4268 20.9687H26.6667V22.902C26.6667 25.8487 24.2801 28.2354 21.3334 28.2354H8.00008C5.05341 28.2354 2.66675 25.8487 2.66675 22.902V13.5687C2.66675 10.622 5.05341 8.23535 8.00008 8.23535H21.3334C24.2667 8.23535 26.6667 10.6354 26.6667 13.5687V15.502H25.2267C24.4801 15.502 23.8001 15.7953 23.3067 16.302Z" stroke="#424040" stroke-width="2.11961" stroke-linecap="round" stroke-linejoin="round"/>
<path d="M29.3335 16.862V19.6086C29.3335 20.3553 28.7201 20.9687 27.9601 20.9687H25.3868C23.9468 20.9687 22.6268 19.9153 22.5068 18.4753C22.4268 17.6353 22.7468 16.8487 23.3068 16.302C23.8001 15.7953 24.4801 15.502 25.2268 15.502H27.9601C28.7201 15.502 29.3335 16.1153 29.3335 16.862Z" stroke="#424040" stroke-width="2.11961" stroke-linecap="round" stroke-linejoin="round"/>
</svg>
