<svg width="48" height="48" viewBox="0 0 48 48" fill="none" xmlns="http://www.w3.org/2000/svg">
<path d="M40 22.06V34C40 42 38 44 30 44H18C10 44 8 42 8 34V14C8 6 10 4 18 4H30C38 4 40 6 40 14" stroke="#7C3C7D" stroke-width="2.95327" stroke-linecap="round" stroke-linejoin="round"/>
<path d="M28 11H20" stroke="#7C3C7D" stroke-width="2.95327" stroke-linecap="round" stroke-linejoin="round"/>
<path d="M24.0004 38.2005C25.7125 38.2005 27.1004 36.8126 27.1004 35.1005C27.1004 33.3884 25.7125 32.0005 24.0004 32.0005C22.2883 32.0005 20.9004 33.3884 20.9004 35.1005C20.9004 36.8126 22.2883 38.2005 24.0004 38.2005Z" stroke="#7C3C7D" stroke-width="2.95327" stroke-linecap="round" stroke-linejoin="round"/>
</svg>
