<svg width="33" height="33" viewBox="0 0 33 33" fill="none" xmlns="http://www.w3.org/2000/svg">
<path d="M29.7486 8.82373H21.6365" stroke="#424040" stroke-width="2.1162" stroke-miterlimit="10" stroke-linecap="round" stroke-linejoin="round"/>
<path d="M8.11631 8.82373H2.70825" stroke="#424040" stroke-width="2.1162" stroke-miterlimit="10" stroke-linecap="round" stroke-linejoin="round"/>
<path d="M13.5243 13.5559C16.1377 13.5559 18.2563 11.4373 18.2563 8.82385C18.2563 6.21041 16.1377 4.0918 13.5243 4.0918C10.9108 4.0918 8.79224 6.21041 8.79224 8.82385C8.79224 11.4373 10.9108 13.5559 13.5243 13.5559Z" stroke="#424040" stroke-width="2.1162" stroke-miterlimit="10" stroke-linecap="round" stroke-linejoin="round"/>
<path d="M29.7484 23.6963H24.3403" stroke="#424040" stroke-width="2.1162" stroke-miterlimit="10" stroke-linecap="round" stroke-linejoin="round"/>
<path d="M10.8203 23.6963H2.70825" stroke="#424040" stroke-width="2.1162" stroke-miterlimit="10" stroke-linecap="round" stroke-linejoin="round"/>
<path d="M18.9322 28.428C21.5457 28.428 23.6643 26.3094 23.6643 23.6959C23.6643 21.0825 21.5457 18.9639 18.9322 18.9639C16.3188 18.9639 14.2002 21.0825 14.2002 23.6959C14.2002 26.3094 16.3188 28.428 18.9322 28.428Z" stroke="#424040" stroke-width="2.1162" stroke-miterlimit="10" stroke-linecap="round" stroke-linejoin="round"/>
</svg>
